<mxfile host="Electron" modified="2023-08-07T19:31:12.492Z" agent="Mozilla/5.0 (Macintosh; Intel Mac OS X 10_15_7) AppleWebKit/537.36 (KHTML, like Gecko) draw.io/21.5.0 Chrome/112.0.5615.204 Electron/24.5.1 Safari/537.36" etag="HNdcyca-ttC9mv-E8lIq" version="21.5.0" type="device">
  <diagram name="Page-1" id="uoVPiSWj483tKxdj_zOO">
    <mxGraphModel dx="596" dy="421" grid="0" gridSize="10" guides="1" tooltips="1" connect="1" arrows="1" fold="1" page="1" pageScale="1" pageWidth="850" pageHeight="1100" math="1" shadow="0">
      <root>
        <mxCell id="0" />
        <mxCell id="1" parent="0" />
        <mxCell id="WP97LV-P51CVo7G6hs1F-19" value="" style="verticalLabelPosition=bottom;verticalAlign=top;html=1;shape=mxgraph.basic.arc;startAngle=0.8758246296314575;endAngle=0.1631563008489516;dashed=1;dashPattern=1 4;" parent="1" vertex="1">
          <mxGeometry x="20" y="112" width="623" height="527" as="geometry" />
        </mxCell>
        <mxCell id="WP97LV-P51CVo7G6hs1F-10" value="" style="endArrow=none;html=1;rounded=0;dashed=1;dashPattern=1 1;" parent="1" edge="1">
          <mxGeometry width="50" height="50" relative="1" as="geometry">
            <mxPoint x="530" y="160" as="sourcePoint" />
            <mxPoint x="380" y="110" as="targetPoint" />
          </mxGeometry>
        </mxCell>
        <mxCell id="WP97LV-P51CVo7G6hs1F-1" value="" style="endArrow=none;html=1;rounded=0;strokeWidth=3;" parent="1" edge="1">
          <mxGeometry width="50" height="50" relative="1" as="geometry">
            <mxPoint x="500" y="150" as="sourcePoint" />
            <mxPoint x="440" y="130" as="targetPoint" />
          </mxGeometry>
        </mxCell>
        <mxCell id="WP97LV-P51CVo7G6hs1F-2" value="" style="endArrow=none;html=1;rounded=0;strokeWidth=3;" parent="1" edge="1">
          <mxGeometry width="50" height="50" relative="1" as="geometry">
            <mxPoint x="560" y="290" as="sourcePoint" />
            <mxPoint x="530" y="240" as="targetPoint" />
          </mxGeometry>
        </mxCell>
        <mxCell id="WP97LV-P51CVo7G6hs1F-4" value="" style="endArrow=none;dashed=1;html=1;rounded=0;" parent="1" edge="1">
          <mxGeometry width="50" height="50" relative="1" as="geometry">
            <mxPoint x="546" y="265" as="sourcePoint" />
            <mxPoint x="606" y="225" as="targetPoint" />
          </mxGeometry>
        </mxCell>
        <mxCell id="WP97LV-P51CVo7G6hs1F-5" value="" style="endArrow=none;dashed=1;html=1;rounded=0;" parent="1" edge="1">
          <mxGeometry width="50" height="50" relative="1" as="geometry">
            <mxPoint x="470" y="140" as="sourcePoint" />
            <mxPoint x="530" y="100" as="targetPoint" />
          </mxGeometry>
        </mxCell>
        <mxCell id="WP97LV-P51CVo7G6hs1F-7" value="" style="endArrow=none;html=1;rounded=0;dashed=1;dashPattern=1 1;" parent="1" edge="1">
          <mxGeometry width="50" height="50" relative="1" as="geometry">
            <mxPoint x="480" y="160" as="sourcePoint" />
            <mxPoint x="420" y="60" as="targetPoint" />
          </mxGeometry>
        </mxCell>
        <mxCell id="WP97LV-P51CVo7G6hs1F-8" value="\(\delta_f\)" style="text;html=1;align=center;verticalAlign=middle;resizable=0;points=[];autosize=1;strokeColor=none;fillColor=none;" parent="1" vertex="1">
          <mxGeometry x="345" y="60" width="80" height="30" as="geometry" />
        </mxCell>
        <mxCell id="WP97LV-P51CVo7G6hs1F-9" value="" style="verticalLabelPosition=bottom;verticalAlign=top;html=1;shape=mxgraph.basic.arc;startAngle=0.7814164790945006;endAngle=0.9716556285507453;" parent="1" vertex="1">
          <mxGeometry x="380" y="65" width="100" height="100" as="geometry" />
        </mxCell>
        <mxCell id="WP97LV-P51CVo7G6hs1F-11" value="" style="endArrow=none;html=1;rounded=0;" parent="1" edge="1">
          <mxGeometry width="50" height="50" relative="1" as="geometry">
            <mxPoint x="468" y="139" as="sourcePoint" />
            <mxPoint x="548" y="269" as="targetPoint" />
          </mxGeometry>
        </mxCell>
        <mxCell id="WP97LV-P51CVo7G6hs1F-12" value="" style="endArrow=none;html=1;rounded=0;" parent="1" edge="1">
          <mxGeometry width="50" height="50" relative="1" as="geometry">
            <mxPoint x="400" y="370" as="sourcePoint" />
            <mxPoint x="540" y="270" as="targetPoint" />
          </mxGeometry>
        </mxCell>
        <mxCell id="WP97LV-P51CVo7G6hs1F-13" value="" style="endArrow=none;html=1;rounded=0;" parent="1" edge="1">
          <mxGeometry width="50" height="50" relative="1" as="geometry">
            <mxPoint x="400" y="370" as="sourcePoint" />
            <mxPoint x="470" y="140" as="targetPoint" />
          </mxGeometry>
        </mxCell>
        <mxCell id="WP97LV-P51CVo7G6hs1F-14" value="\(R\)" style="text;html=1;align=center;verticalAlign=middle;resizable=0;points=[];autosize=1;strokeColor=none;fillColor=none;" parent="1" vertex="1">
          <mxGeometry x="460" y="310" width="50" height="30" as="geometry" />
        </mxCell>
        <mxCell id="WP97LV-P51CVo7G6hs1F-15" value="&lt;font style=&quot;font-size: 36px;&quot;&gt;+&lt;/font&gt;" style="text;html=1;align=center;verticalAlign=middle;resizable=0;points=[];autosize=1;strokeColor=none;fillColor=none;connectable=0;allowArrows=0;" parent="1" vertex="1">
          <mxGeometry x="380" y="337" width="40" height="60" as="geometry" />
        </mxCell>
        <mxCell id="WP97LV-P51CVo7G6hs1F-18" value="" style="verticalLabelPosition=bottom;verticalAlign=top;html=1;shape=mxgraph.basic.arc;startAngle=0.8758246296314575;endAngle=0.1631563008489516;dashed=1;dashPattern=1 4;" parent="1" vertex="1">
          <mxGeometry x="81" y="161" width="500" height="450" as="geometry" />
        </mxCell>
        <mxCell id="WP97LV-P51CVo7G6hs1F-20" value="front wheel path" style="text;html=1;align=center;verticalAlign=middle;resizable=0;points=[];autosize=1;strokeColor=none;fillColor=none;" parent="1" vertex="1">
          <mxGeometry x="60" y="140" width="110" height="30" as="geometry" />
        </mxCell>
        <mxCell id="WP97LV-P51CVo7G6hs1F-21" value="rear wheel path" style="text;html=1;align=center;verticalAlign=middle;resizable=0;points=[];autosize=1;strokeColor=none;fillColor=none;" parent="1" vertex="1">
          <mxGeometry x="140" y="220" width="110" height="30" as="geometry" />
        </mxCell>
        <mxCell id="ObzXrgne4RmOD-zioH0g-1" value="\(\delta_f\)" style="text;html=1;align=center;verticalAlign=middle;resizable=0;points=[];autosize=1;strokeColor=none;fillColor=none;" vertex="1" parent="1">
          <mxGeometry x="390" y="307" width="80" height="30" as="geometry" />
        </mxCell>
        <mxCell id="ObzXrgne4RmOD-zioH0g-3" value="" style="whiteSpace=wrap;html=1;aspect=fixed;fillColor=none;rotation=-35;connectable=0;allowArrows=0;" vertex="1" parent="1">
          <mxGeometry x="533" y="261" width="10" height="10" as="geometry" />
        </mxCell>
        <mxCell id="ObzXrgne4RmOD-zioH0g-5" value="" style="whiteSpace=wrap;html=1;aspect=fixed;fillColor=none;rotation=-70;connectable=0;allowArrows=0;" vertex="1" parent="1">
          <mxGeometry x="468" y="143" width="10" height="10" as="geometry" />
        </mxCell>
        <mxCell id="ObzXrgne4RmOD-zioH0g-6" value="\(\delta_f\)" style="text;html=1;align=center;verticalAlign=middle;resizable=0;points=[];autosize=1;strokeColor=none;fillColor=none;" vertex="1" parent="1">
          <mxGeometry x="453" y="143" width="80" height="30" as="geometry" />
        </mxCell>
        <mxCell id="ObzXrgne4RmOD-zioH0g-7" value="&lt;font style=&quot;font-size: 9px;&quot;&gt;\(90-\delta_f\)&lt;/font&gt;" style="text;html=1;align=center;verticalAlign=middle;resizable=0;points=[];autosize=1;strokeColor=none;fillColor=none;rotation=75;" vertex="1" parent="1">
          <mxGeometry x="436" y="161" width="80" height="30" as="geometry" />
        </mxCell>
        <mxCell id="ObzXrgne4RmOD-zioH0g-8" value="\(b\)" style="text;html=1;align=center;verticalAlign=middle;resizable=0;points=[];autosize=1;strokeColor=none;fillColor=none;" vertex="1" parent="1">
          <mxGeometry x="539" y="149" width="40" height="30" as="geometry" />
        </mxCell>
        <mxCell id="ObzXrgne4RmOD-zioH0g-9" value="" style="endArrow=classic;html=1;rounded=0;" edge="1" parent="1" source="ObzXrgne4RmOD-zioH0g-8">
          <mxGeometry width="50" height="50" relative="1" as="geometry">
            <mxPoint x="430" y="220" as="sourcePoint" />
            <mxPoint x="520" y="110" as="targetPoint" />
          </mxGeometry>
        </mxCell>
        <mxCell id="ObzXrgne4RmOD-zioH0g-10" value="" style="endArrow=classic;html=1;rounded=0;" edge="1" parent="1">
          <mxGeometry width="50" height="50" relative="1" as="geometry">
            <mxPoint x="570" y="177" as="sourcePoint" />
            <mxPoint x="602" y="220" as="targetPoint" />
          </mxGeometry>
        </mxCell>
      </root>
    </mxGraphModel>
  </diagram>
</mxfile>
